<svg width="24" height="24" viewBox="0 0 24 24" fill="none" xmlns="http://www.w3.org/2000/svg">
<circle cx="19" cy="19" r="2" fill="black" fill-opacity="0.15"/>
<path d="M11.6893 3L13 5C12.5879 7.94606 11.0988 11.6561 8.68151 12.8414C8.46546 12.9473 8.23211 13.0002 7.9988 13M4.31068 3L2.99997 5C3.41203 7.94606 4.90119 11.6561 7.3185 12.8414C7.5338 12.9469 7.76628 12.9998 7.9988 13M19 17C20.1046 17 21 17.8954 21 19C21 20.1046 20.1046 21 19 21C17.8954 21 17 20.1046 17 19C17 17.8954 17.8954 17 19 17ZM19 17V15.5C19 14.837 18.7366 14.2011 18.2678 13.7322C17.7989 13.2634 17.163 13 16.5 13C15.837 13 15.2011 13.2634 14.7322 13.7322C14.2634 14.2011 14 14.837 14 15.5V17C14 17.7956 13.6839 18.5587 13.1213 19.1213C12.5587 19.6839 11.7957 20 11 20C10.2044 20 9.4413 19.6839 8.87869 19.1213C8.31608 18.5587 8.00001 17.7956 8.00001 17L7.9988 13" stroke="#CECFD0" stroke-width="2" stroke-linecap="round" stroke-linejoin="round"/>
</svg>
