<svg width="24" height="24" viewBox="0 0 24 24" fill="none" xmlns="http://www.w3.org/2000/svg">
<path d="M19.35 23.2501H4.64998C3.26248 23.2501 2.09998 22.1251 2.09998 20.7001V9.33755C2.09998 8.58755 2.43748 7.87505 3.03748 7.38755L10.3875 1.31255C11.325 0.525049 12.675 0.525049 13.6125 1.31255L20.9625 7.35005C21.5625 7.83755 21.9 8.55005 21.9 9.30005V20.6626C21.9 22.1251 20.7375 23.2501 19.35 23.2501ZM12 2.25005C11.775 2.25005 11.5125 2.32505 11.325 2.47505L3.97498 8.55005C3.74998 8.73755 3.59998 9.03755 3.59998 9.33755V20.7001C3.59998 21.2626 4.04998 21.7501 4.64998 21.7501H19.35C19.9125 21.7501 20.4 21.3001 20.4 20.7001V9.33755C20.4 9.03755 20.25 8.73755 20.025 8.55005L12.675 2.47505C12.4875 2.32505 12.225 2.25005 12 2.25005Z" fill="#CECFD0"/>
<path d="M16.5 19.9501H7.5C7.0875 19.9501 6.75 19.6126 6.75 19.2001C6.75 18.7876 7.0875 18.4501 7.5 18.4501H16.5C16.9125 18.4501 17.25 18.7876 17.25 19.2001C17.25 19.6126 16.9125 19.9501 16.5 19.9501Z" fill="#CECFD0"/>
</svg>
