<svg width="24" height="25" viewBox="0 0 24 25" fill="none" xmlns="http://www.w3.org/2000/svg">
<g clip-path="url(#clip0_779_124)">
<path fill-rule="evenodd" clip-rule="evenodd" d="M2.59816 11.4017C2.59816 6.81579 6.31578 3.09815 10.9017 3.09815C15.4876 3.09815 19.2052 6.81579 19.2052 11.4017C19.2052 15.9876 15.4876 19.7053 10.9017 19.7053C6.31578 19.7053 2.59816 15.9876 2.59816 11.4017ZM10.9017 0.526733C4.89563 0.526733 0.0267334 5.39562 0.0267334 11.4017C0.0267334 17.4078 4.89563 22.2767 10.9017 22.2767C13.2861 22.2767 15.4914 21.5092 17.2838 20.2079L21.0468 23.9711C21.7163 24.6405 22.8018 24.6405 23.4712 23.9711C24.1408 23.3015 24.1408 22.2162 23.4712 21.5467L19.7082 17.7835C21.0093 15.9912 21.7766 13.786 21.7766 11.4017C21.7766 5.39562 16.9078 0.526733 10.9017 0.526733ZM9.62366 7.42983C10.0421 7.84825 10.0421 8.52665 9.62366 8.94507L6.9527 11.616L9.62366 14.287C10.0421 14.7054 10.0421 15.3838 9.62366 15.8022C9.20524 16.2206 8.52684 16.2206 8.10844 15.8022L4.67987 12.3736C4.26144 11.9552 4.26144 11.2768 4.67987 10.8584L8.10844 7.42983C8.52684 7.01142 9.20524 7.01142 9.62366 7.42983ZM13.9094 7.42983C13.491 7.01142 12.8126 7.01142 12.3942 7.42983C11.9757 7.84825 11.9757 8.52665 12.3942 8.94507L15.0651 11.616L12.3942 14.287C11.9757 14.7054 11.9757 15.3838 12.3942 15.8022C12.8126 16.2206 13.491 16.2206 13.9094 15.8022L17.338 12.3736C17.7564 11.9552 17.7564 11.2768 17.338 10.8584L13.9094 7.42983Z" fill="#4781BF"/>
</g>
<defs>
<clipPath id="clip0_779_124">
<rect width="24" height="24" fill="white" transform="translate(0 0.5)"/>
</clipPath>
</defs>
</svg>
