<svg width="24" height="25" viewBox="0 0 24 25" fill="none" xmlns="http://www.w3.org/2000/svg">
<g clip-path="url(#clip0_779_132)">
<path fill-rule="evenodd" clip-rule="evenodd" d="M2.5981 11.4017C2.5981 6.81579 6.31572 3.09815 10.9016 3.09815C15.4876 3.09815 19.2051 6.81579 19.2051 11.4017C19.2051 15.9876 15.4876 19.7053 10.9016 19.7053C6.31572 19.7053 2.5981 15.9876 2.5981 11.4017ZM10.9016 0.526733C4.89557 0.526733 0.0266724 5.39562 0.0266724 11.4017C0.0266724 17.4078 4.89557 22.2767 10.9016 22.2767C13.2861 22.2767 15.4913 21.5092 17.2838 20.2079L21.0468 23.9711C21.7162 24.6405 22.8017 24.6405 23.4711 23.9711C24.1407 23.3015 24.1407 22.2162 23.4711 21.5467L19.7081 17.7835C21.0092 15.9912 21.7766 13.786 21.7766 11.4017C21.7766 5.39562 16.9077 0.526733 10.9016 0.526733ZM9.6236 7.42983C10.042 7.84825 10.042 8.52665 9.6236 8.94507L6.95264 11.616L9.6236 14.287C10.042 14.7054 10.042 15.3838 9.6236 15.8022C9.20518 16.2206 8.52678 16.2206 8.10838 15.8022L4.67981 12.3736C4.26138 11.9552 4.26138 11.2768 4.67981 10.8584L8.10838 7.42983C8.52678 7.01142 9.20518 7.01142 9.6236 7.42983ZM13.9093 7.42983C13.4909 7.01142 12.8125 7.01142 12.3941 7.42983C11.9757 7.84825 11.9757 8.52665 12.3941 8.94507L15.065 11.616L12.3941 14.287C11.9757 14.7054 11.9757 15.3838 12.3941 15.8022C12.8125 16.2206 13.4909 16.2206 13.9093 15.8022L17.3379 12.3736C17.7564 11.9552 17.7564 11.2768 17.3379 10.8584L13.9093 7.42983Z" fill="#CECFD0"/>
</g>
<defs>
<clipPath id="clip0_779_132">
<rect width="24" height="24" fill="white" transform="translate(0 0.5)"/>
</clipPath>
</defs>
</svg>
